# xmcd
#
# Track frame offsets:
#	150
#	13888
#	24604
#	37972
#	50889
#	63698
#	77270
#	91251
#	109502
#	126245
#	149398
#
# Disc length: 2775 seconds
#
# Revision: 1
# Processed by: cddbd v1.5.2PL0 Copyright (c) Steve Scherf et al.
# Submitted via: audiograbber 1.83.01
#
DISCID=910ad50b
DTITLE=Differentes - Tata Güines Manos de seda Vol.I [Fiesta de Tambores]
DYEAR=2008
DGENRE=
TTITLE0=Israel López [Cachao] - Descarga Cubana 
TTITLE1=Israel López [Cachao] - Estudio de Trompeta
TTITLE2=D. R. - Descarga Nr.1
TTITLE3=D. R. - Descarga Nr.2
TTITLE4=Bebo Valdés - Special de Bebo
TTITLE5=Alejandro Rodriguéz - La Mulata Rumbera
TTITLE6=Piloto y Vera - Scherezada Chachacha
TTITLE7=Franko Emilio - Sasauma
TTITLE8=Jorge Poso Sayú - Perico, no llores Más
TTITLE9=Jorge Poso Sayú - Mami, Dame Manteca'o
TTITLE10=Artistides Soto (Tata Güines) - Pa'Gozar
EXTD=
EXTT0=
EXTT1=
EXTT2=
EXTT3=
EXTT4=
EXTT5=
EXTT6=
EXTT7=
EXTT8=
EXTT9=
EXTT10=
PLAYORDER=
